<svg viewBox="0 0 800 600" xmlns="http://www.w3.org/2000/svg">
<rect width="800" height="600" fill="#0b1220"/>
<rect x="0" y="380" width="800" height="220" fill="#131c2e"/>
<g stroke="#2a3550" stroke-width="2">
<line x1="0" y1="60" x2="800" y2="60"/>
<line x1="0" y1="150" x2="800" y2="150"/>
<line x1="0" y1="240" x2="800" y2="240"/>
<line x1="0" y1="330" x2="800" y2="330"/>
</g>
<g fill="#0f9d7c" opacity="0.85">
<rect x="80" y="400" width="120" height="140" rx="4"/>
<rect x="240" y="430" width="120" height="110" rx="4"/>
<rect x="400" y="390" width="120" height="150" rx="4"/>
<rect x="560" y="420" width="120" height="120" rx="4"/>
</g>
<g fill="#ff8a3d" opacity="0.7">
<rect x="80" y="400" width="120" height="10"/>
<rect x="240" y="430" width="120" height="10"/>
<rect x="400" y="390" width="120" height="10"/>
<rect x="560" y="420" width="120" height="10"/>
</g>
<circle cx="700" cy="120" r="60" fill="#0f9d7c" opacity="0.15"/>
<circle cx="100" cy="100" r="40" fill="#ff8a3d" opacity="0.12"/>
</svg>
