<svg viewBox="0 0 800 600" xmlns="http://www.w3.org/2000/svg">
<rect width="800" height="600" fill="#0b1220"/>
<g>
<rect x="100" y="90" width="130" height="420" rx="6" fill="#131c2e" stroke="#2a3550" stroke-width="2"/>
<rect x="270" y="90" width="130" height="420" rx="6" fill="#131c2e" stroke="#2a3550" stroke-width="2"/>
<rect x="440" y="90" width="130" height="420" rx="6" fill="#131c2e" stroke="#2a3550" stroke-width="2"/>
<rect x="610" y="90" width="130" height="420" rx="6" fill="#131c2e" stroke="#2a3550" stroke-width="2"/>
</g>
<g fill="#0f9d7c">
<circle cx="125" cy="130" r="5"/><circle cx="150" cy="130" r="5"/><circle cx="175" cy="130" r="5"/>
<circle cx="295" cy="170" r="5"/><circle cx="320" cy="170" r="5"/>
<circle cx="465" cy="210" r="5"/><circle cx="490" cy="210" r="5"/><circle cx="515" cy="210" r="5"/>
<circle cx="635" cy="150" r="5"/><circle cx="660" cy="150" r="5"/>
</g>
<g fill="#ff8a3d" opacity="0.8">
<circle cx="125" cy="260" r="5"/>
<circle cx="465" cy="310" r="5"/>
<circle cx="635" cy="380" r="5"/>
</g>
</svg>
